<svg width="147" height="147" viewBox="0 0 147 147" fill="none" xmlns="http://www.w3.org/2000/svg">
<rect x="0.582394" y="1.44952" width="144.919" height="144.919" rx="3.57047" fill="#E5E5E5"/>
<g clip-path="url(#clip0_590_6693)">
<path d="M73.0419 14.6711C38.7873 14.6711 11.0187 42.4398 11.0187 76.6944C11.0187 84.9255 12.626 92.7803 15.5375 99.9672L29.9972 121.345C37.3109 128.397 46.3517 133.668 56.4238 136.462L92.2756 135.673C117.114 127.578 135.065 104.234 135.065 76.6944C135.065 42.4398 107.296 14.6711 73.0419 14.6711Z" fill="#FFC839"/>
<path d="M63.9464 124.45C62.5219 122.79 61.6976 121.347 61.2308 120.168C60.9888 120.174 60.5136 120.18 60.0516 119.79C59.6792 119.477 59.2638 119.091 58.8377 118.633C58.5086 118.553 58.1924 118.389 57.9228 118.13L57.8977 118.106C57.26 117.495 56.2998 117.368 55.5254 117.792L52.3614 119.525C52.0207 119.711 51.6437 119.787 51.2736 119.766C53.272 124.409 59.0855 130.305 62.1245 133.189C62.7444 133.778 62.3528 134.82 61.4992 134.863C59.2357 134.976 57.6036 135.611 56.4241 136.463C59.3154 137.265 62.2908 137.864 65.3353 138.241C66.4795 136.978 68.3081 135.942 71.2298 135.795C72.4366 135.735 72.9847 134.262 72.11 133.432C68.0782 129.605 65.5378 126.615 63.9464 124.45Z" fill="#BEC8F7"/>
<path d="M63.9464 124.45C62.5219 122.79 61.6976 121.347 61.2308 120.168C60.9888 120.174 60.5136 120.18 60.0516 119.79C59.6792 119.477 59.2638 119.091 58.8377 118.633C58.5086 118.552 58.1924 118.389 57.9228 118.13L57.8977 118.106C57.26 117.495 56.2998 117.368 55.5251 117.792L52.3612 119.525C52.0204 119.711 51.6435 119.787 51.2733 119.766C52.71 123.104 56.1188 127.089 59.0506 130.138C59.1888 129.96 59.3131 129.771 59.4149 129.568C60.4316 127.545 62.468 127.272 64.0482 127.418C64.7315 127.482 65.4089 127.343 65.9937 127.031C65.1806 126.07 64.5036 125.209 63.9464 124.45Z" fill="#A4B3EA"/>
<path d="M71.2095 135.396C67.9825 135.557 66.0362 136.776 64.8611 138.18C67.5382 138.533 70.2683 138.717 73.0419 138.717C79.7564 138.717 86.2198 137.646 92.2756 135.672C90.5187 135.198 88.7129 134.989 87.3109 134.9C85.4522 134.783 83.6755 134.103 82.2222 132.939C80.4723 131.538 77.9324 129.363 74.9778 126.408C71.5138 122.944 70.5966 120.253 70.4037 118.69C69.6518 119.382 68.4377 119.434 67.6334 118.663L67.6084 118.639C66.9707 118.028 66.0104 117.901 65.236 118.325L62.072 120.058C61.7313 120.244 61.3543 120.32 60.9842 120.299C62.9827 124.941 68.7962 130.838 71.8348 133.722C72.4551 134.311 72.0634 135.353 71.2095 135.396Z" fill="#E9EFFF"/>
<path d="M70.4037 118.689C69.6518 119.382 68.4377 119.433 67.6334 118.663L67.6084 118.639C66.9707 118.028 66.0104 117.901 65.236 118.325L62.072 120.058C61.7313 120.244 61.3546 120.32 60.9842 120.299C61.9191 122.471 63.6895 124.917 65.6198 127.201C66.2198 126.97 66.7499 126.571 67.1296 126.026C68.6311 123.871 70.7916 123.908 72.1242 124.2C72.4341 124.268 72.7487 124.285 73.0594 124.26C71.1493 121.826 70.5549 119.913 70.4037 118.689Z" fill="#BEC8F7"/>
<path d="M55.3279 107.797L55.9059 104.895L55.8466 104.856C53.2819 108.096 50.1232 111.486 46.3261 114.574C47.4129 117.016 49.0098 118.659 50.0832 119.563C50.7235 120.103 51.627 120.194 52.3614 119.792L55.5254 118.059C56.3 117.635 57.2603 117.762 57.8977 118.373L57.9228 118.397C58.2744 118.734 58.7053 118.911 59.1412 118.949C57.1643 116.952 54.776 113.335 55.3279 107.797Z" fill="#422953"/>
<path d="M36.4178 111.065V110.204C36.4178 109.462 35.6076 109.006 34.974 109.392C33.1272 110.515 29.4984 112.529 24.0484 114.727C25.8724 117.073 27.861 119.284 29.9974 121.344C30.449 120.931 30.8354 120.565 31.1548 120.254C31.6862 119.736 32.5778 119.999 32.7439 120.722L32.9368 121.561C33.0702 122.141 33.6973 122.456 34.2439 122.221C44.1376 117.962 51.3741 110.906 56.3021 104.541C51.049 107.834 44.7502 110.686 37.5438 112.001C36.9585 112.108 36.4178 111.66 36.4178 111.065Z" fill="#543E5B"/>
<path d="M56.3021 104.541C51.0491 107.835 44.7502 110.687 37.5436 112.002C36.9583 112.108 36.4178 111.66 36.4178 111.066V110.204C36.4178 109.462 35.6079 109.006 34.974 109.392C34.2118 109.856 33.1406 110.473 31.7685 111.19C31.6964 111.869 31.8559 112.567 32.2303 113.163C33.0229 114.425 33.6644 116.547 32.0817 119.398C31.9776 119.585 31.8938 119.782 31.828 119.984C32.2404 119.99 32.6384 120.263 32.7439 120.722L32.9371 121.561C33.0703 122.141 33.6976 122.456 34.2439 122.221C44.1373 117.963 51.3739 110.907 56.3021 104.541Z" fill="#422953"/>
<path d="M120.781 26.9593L118.091 24.392C116.417 22.794 116.079 20.2475 117.277 18.2678L119.098 15.2601L119.047 14.9041C119.047 14.9041 108.663 3.21379 95.7461 13.0161C88.5227 18.4974 87.7896 29.9835 81.6642 40.4564C82.2505 40.4009 82.8388 40.3701 83.4277 40.3701C86.9633 40.3701 90.5009 41.3741 93.5618 43.4416C98.8258 46.9977 101.203 52.634 100.628 60.1933C99.1245 79.9546 78.0521 89.6232 71.6297 92.1158C71.3386 92.2285 71.0194 92.2611 70.7065 92.2103L70.4202 92.1634L70.2255 92.3786C67.1643 95.7603 62.174 100.574 55.5479 104.646L54.9322 107.737C54.253 114.475 57.8676 118.472 59.7938 120.096C60.4341 120.636 61.3376 120.726 62.072 120.324L65.2362 118.591C66.0109 118.167 66.9709 118.294 67.6086 118.906L67.6336 118.93C68.6521 119.906 70.3316 119.567 70.8915 118.272L71.5401 116.772C71.7505 116.286 72.1452 115.903 72.6355 115.702C108.455 100.986 113.372 75.1633 114.96 52.9756C115.93 39.4164 120.824 27.2542 120.824 27.2542L120.781 26.9593Z" fill="#543E5B"/>
<path d="M86.315 89.5221C86.4798 87.8165 85.9927 86.1834 85.0444 84.8862C79.6782 88.7254 74.3447 91.062 71.6295 92.1157C71.3387 92.2283 71.0192 92.261 70.7063 92.2103L70.42 92.1635L70.2253 92.379C67.1643 95.7606 62.1738 100.574 55.5477 104.646L54.932 107.738C54.2525 114.475 57.8674 118.472 59.7936 120.096C60.4339 120.636 61.3377 120.727 62.0718 120.324L65.236 118.592C66.0107 118.168 66.9709 118.295 67.6084 118.906L67.6334 118.93C68.6519 119.906 70.3314 119.567 70.8913 118.272L71.5397 116.772C71.75 116.286 72.1447 115.903 72.6351 115.702C82.2781 111.74 89.6785 106.973 95.3803 101.689C87.0805 100.03 85.8669 94.1625 86.315 89.5221Z" fill="#422953"/>
<path d="M68.8103 89.9062C68.5822 88.9859 67.4557 88.6462 66.7547 89.2778C63.4543 92.2461 54.1436 98.8469 38.9984 96.0293C38.1056 95.8627 37.1648 95.9974 36.3509 96.407C34.2679 97.4546 29.9374 98.9345 24.337 97.0784C23.632 96.8445 22.9016 96.7979 22.2272 96.9151C21.5057 97.0409 20.4974 97.167 19.3536 97.1771C18.1311 98.048 16.8519 98.9844 15.5373 99.9669C17.7286 105.376 20.6574 110.407 24.2046 114.931C29.5681 112.757 33.1444 110.771 34.9737 109.658C35.6076 109.273 36.4175 109.728 36.4175 110.47V111.332C36.4175 111.927 36.958 112.374 37.5433 112.268C53.895 109.285 65.5808 98.3908 70.9536 92.3669C69.5883 92.3367 69.1349 91.2137 68.8103 89.9062Z" fill="#665364"/>
<path d="M70.9539 92.3669C69.5881 92.3368 69.1347 91.2135 68.8104 89.9062C68.5823 88.9857 67.4557 88.6463 66.7547 89.2779C63.4541 92.2464 54.1437 98.847 38.9985 96.0294C38.1058 95.8628 37.1649 95.9975 36.3512 96.4071C34.8793 97.1473 32.2837 98.1022 28.9116 97.9442C29.0413 98.1999 29.2038 98.4379 29.4005 98.6468C30.5706 99.8888 34.691 104.82 32.0402 110.224C31.8473 110.618 31.7571 111.041 31.7518 111.466C33.1323 110.744 34.2085 110.124 34.974 109.658C35.6079 109.273 36.4178 109.729 36.4178 110.471V111.332C36.4178 111.927 36.9585 112.375 37.5436 112.268C53.8953 109.285 65.5811 98.3908 70.9539 92.3669Z" fill="#543E5B"/>
<path d="M93.8601 43.0001C86.081 37.745 75.5643 39.1508 69.2131 46.0641C51.8743 64.937 25.1778 87.8574 17.0339 94.7461C15.9608 95.6539 16.519 97.4131 17.9197 97.5278C19.7025 97.6739 21.3222 97.4787 22.2963 97.3091C22.9376 97.1974 23.5935 97.2531 24.2112 97.4579C30.0468 99.3926 34.572 97.7496 36.5309 96.764C37.2711 96.3916 38.1109 96.2709 38.9255 96.4223C54.3593 99.2936 63.8487 92.4297 67.0223 89.5748C67.501 89.144 68.2676 89.3769 68.4225 90.0022C68.5412 90.4811 68.6994 90.9373 68.8678 91.3495C69.3404 92.5049 70.6589 93.0641 71.8227 92.6125C78.4033 90.0586 99.6326 80.3019 101.16 60.2336C101.838 51.3186 98.4098 46.0737 93.8601 43.0001Z" fill="#7C6B7B"/>
<path d="M68.4222 90.0024C68.541 90.4814 68.6989 90.9376 68.8675 91.3497C69.3402 92.5051 70.6589 93.0644 71.8224 92.6127C74.5902 91.5386 79.9498 89.1895 85.3446 85.3354C84.4563 83.8894 83.0317 82.7841 81.2781 82.3411C64.5489 78.1146 62.4614 64.9972 62.7019 57.5595C62.7449 56.2268 62.3956 54.9577 61.7508 53.8752C45.0064 70.8305 24.0783 88.7865 17.0334 94.7458C15.9603 95.6534 16.5185 97.4129 17.9195 97.5275C19.7022 97.6736 21.3219 97.4784 22.2961 97.3088C22.9373 97.1972 23.5933 97.2529 24.211 97.4577C30.0465 99.3923 34.5717 97.7491 36.5306 96.7638C37.2709 96.3914 38.1106 96.2706 38.9253 96.422C54.359 99.2933 63.8484 92.4292 67.022 89.5746C67.501 89.1445 68.2673 89.3771 68.4222 90.0024Z" fill="#665364"/>
<path d="M115.984 21.2814C116.027 22.191 116.418 23.0492 117.077 23.6778L120.823 27.2542C124.982 22.1232 130.351 20.6974 130.351 20.6974C124.331 18.9071 118.325 20.4987 115.984 21.2814Z" fill="#665364"/>
<path d="M105.646 23.603C107.618 23.603 109.216 22.0046 109.216 20.0329C109.216 18.0612 107.618 16.4629 105.646 16.4629C103.675 16.4629 102.076 18.0612 102.076 20.0329C102.076 22.0046 103.675 23.603 105.646 23.603Z" fill="#BEC8F7"/>
<path d="M107.857 19.4502C107.857 20.275 107.189 20.9438 106.364 20.9438C105.539 20.9438 104.87 20.2752 104.87 19.4502C104.87 18.6251 105.539 17.9565 106.364 17.9565C107.189 17.9565 107.857 18.6251 107.857 19.4502Z" fill="#E9EFFF"/>
<path d="M134.969 20.8246C134.078 18.1457 130.834 13.2671 119.046 14.904L116.653 18.8589C116.179 19.6409 115.95 20.5459 115.992 21.4591C119.187 20.8834 128.996 19.3872 133.995 21.6773C134.559 21.9355 135.165 21.413 134.969 20.8246Z" fill="#7C6B7B"/>
<path d="M60.9842 36.7079C69.7242 27.9678 68.4265 20.1637 65.7375 15.1013C35.9833 18.5926 12.6682 43.1401 11.1032 73.4429C19.1524 83.7031 47.4456 50.2465 60.9842 36.7079Z" fill="#FFDD40"/>
</g>
<rect x="0.582394" y="1.44952" width="144.919" height="144.919" rx="3.57047" stroke="#008D79" stroke-width="1.02014"/>
<defs>
<clipPath id="clip0_590_6693">
<rect width="129.617" height="129.617" fill="white" transform="translate(8.23341 9.10059)"/>
</clipPath>
</defs>
</svg>
