<svg width="130" height="131" viewBox="0 0 130 131" fill="none" xmlns="http://www.w3.org/2000/svg">
<g clip-path="url(#clip0_625_7152)">
<path d="M64.9697 130.879C100.851 130.879 129.939 101.791 129.939 65.9091C129.939 30.0274 100.851 0.939453 64.9697 0.939453C29.0879 0.939453 0 30.0274 0 65.9091C0 101.791 29.0879 130.879 64.9697 130.879Z" fill="#FFD939"/>
<path d="M120.176 100.178C108.71 118.611 88.2725 130.879 64.9697 130.879C52.1712 130.879 40.2356 127.179 30.1779 120.786C21.9248 115.543 14.9329 108.485 9.76324 100.178L14.702 63.7876L19.0341 31.8763C19.0341 31.8763 20.1076 24.2576 22.3029 16.9155C24.3408 10.0912 27.3482 3.50537 31.3581 3.50537C31.3581 3.50537 34.2462 4.49768 37.4845 7.02541C40.2305 9.1623 43.2277 12.4057 44.9256 17.0754C44.9256 17.0754 47.3467 15.3598 51.7854 13.8929C55.0415 12.8118 59.3889 11.8702 64.6601 11.8347C64.7642 11.8322 64.8657 11.8321 64.9697 11.8321C77.6134 11.8321 85.0113 17.0754 85.0113 17.0754C86.7092 12.4057 89.7064 9.1623 92.4524 7.02287C95.6907 4.49768 98.5814 3.50537 98.5814 3.50537C102.591 3.50537 105.599 10.0912 107.637 16.9155C109.832 24.2576 110.905 31.8763 110.905 31.8763L120.176 100.178Z" fill="#595454"/>
<path d="M64.6601 11.8347C51.6129 12.1367 40.7355 31.5312 37.9692 58.6992C35.7638 80.3422 37.0454 107.627 30.1779 120.786C21.9248 115.543 14.9329 108.485 9.76324 100.178L14.702 63.7876L19.0341 31.8763C19.0341 31.8763 20.1076 24.2576 22.3029 16.9155C24.3408 10.0912 27.3482 3.50537 31.3581 3.50537C31.3581 3.50537 34.2462 4.49768 37.4845 7.02541C40.2305 9.1623 43.2277 12.4057 44.9256 17.0754C44.9256 17.0754 47.3467 15.3598 51.7854 13.8929C55.0415 12.8118 59.3889 11.8702 64.6601 11.8347V11.8347Z" fill="#454045"/>
<path d="M40.551 47.7691C46.2569 47.7691 50.8824 43.1436 50.8824 37.4377C50.8824 31.7318 46.2569 27.1062 40.551 27.1062C34.8451 27.1062 30.2195 31.7318 30.2195 37.4377C30.2195 43.1436 34.8451 47.7691 40.551 47.7691Z" fill="white"/>
<path d="M40.551 43.8387C44.0863 43.8387 46.9523 40.9728 46.9523 37.4374C46.9523 33.9021 44.0863 31.0361 40.551 31.0361C37.0157 31.0361 34.1497 33.9021 34.1497 37.4374C34.1497 40.9728 37.0157 43.8387 40.551 43.8387Z" fill="#211F21"/>
<path d="M89.3885 47.7691C95.0944 47.7691 99.7199 43.1436 99.7199 37.4377C99.7199 31.7318 95.0944 27.1062 89.3885 27.1062C83.6826 27.1062 79.057 31.7318 79.057 37.4377C79.057 43.1436 83.6826 47.7691 89.3885 47.7691Z" fill="white"/>
<path d="M89.3884 43.8387C92.9238 43.8387 95.7897 40.9728 95.7897 37.4374C95.7897 33.9021 92.9238 31.0361 89.3884 31.0361C85.8531 31.0361 82.9871 33.9021 82.9871 37.4374C82.9871 40.9728 85.8531 43.8387 89.3884 43.8387Z" fill="#211F21"/>
<path d="M60.681 53.1268C57.6675 53.1268 55.2159 50.6753 55.2159 47.6618V46.1309C55.2159 45.4302 55.7841 44.862 56.4849 44.862C57.1856 44.862 57.7538 45.4302 57.7538 46.1309V47.6618C57.7538 49.2759 59.0669 50.589 60.681 50.589C62.2951 50.589 63.6082 49.2759 63.6082 47.6618V39.736C63.6082 39.0353 64.1764 38.467 64.8771 38.467C65.5778 38.467 66.1461 39.0353 66.1461 39.736V47.6618C66.1461 50.6755 63.6945 53.1268 60.681 53.1268Z" fill="#211F21"/>
<path d="M69.0729 53.1268C66.0595 53.1268 63.6079 50.6753 63.6079 47.6618V39.736C63.6079 39.0353 64.1761 38.467 64.8768 38.467C65.5775 38.467 66.1458 39.0353 66.1458 39.736V47.6618C66.1458 49.2759 67.4589 50.589 69.0729 50.589C70.687 50.589 72.0001 49.2759 72.0001 47.6618V46.1309C72.0001 45.4302 72.5684 44.862 73.2691 44.862C73.9698 44.862 74.538 45.4302 74.538 46.1309V47.6618C74.538 50.6755 72.0864 53.1268 69.0729 53.1268Z" fill="#211F21"/>
<path d="M31.6038 23.8357C33.6952 22.9252 34.9258 20.7043 34.5251 18.4587C33.8181 14.4974 30.7944 9.65002 28.3834 9.85076C24.889 10.1416 21.4868 25.2993 25.5329 25.2993C27.7409 25.2991 30.0036 24.5324 31.6038 23.8357V23.8357Z" fill="#211F21"/>
<path d="M98.3357 23.8362C96.2443 22.9256 95.0136 20.7047 95.4144 18.4592C96.1214 14.4979 99.1451 9.6505 101.556 9.85125C105.05 10.1421 108.453 25.2998 104.407 25.2998C102.199 25.2996 99.9359 24.5329 98.3357 23.8362V23.8362Z" fill="#454045"/>
<path d="M68.6885 44.346L72.1573 38.3379C73.8099 35.4751 71.7441 31.8967 68.4385 31.8967H61.5007C58.1951 31.8967 56.129 35.4751 57.782 38.3379L61.2507 44.346C62.9037 47.2088 67.0358 47.2088 68.6885 44.346Z" fill="#211F21"/>
<line x1="26.1865" y1="35.6057" x2="-0.0767017" y2="31.5302" stroke="black"/>
<line x1="26.245" y1="38.9059" x2="-0.314921" y2="37.9372" stroke="black"/>
<line x1="26.4187" y1="41.228" x2="0.0646694" y2="44.6679" stroke="black"/>
<line y1="-0.5" x2="26.5776" y2="-0.5" transform="matrix(0.988173 -0.153341 -0.153341 -0.988173 103.677 35.1116)" stroke="black"/>
<line y1="-0.5" x2="26.5776" y2="-0.5" transform="matrix(0.999336 -0.036447 -0.036447 -0.999336 103.677 38.4062)" stroke="black"/>
<line y1="-0.5" x2="26.5776" y2="-0.5" transform="matrix(0.991589 0.129429 0.129429 -0.991589 103.586 40.7322)" stroke="black"/>
</g>
<defs>
<clipPath id="clip0_625_7152">
<rect width="129.939" height="129.939" fill="white" transform="translate(0 0.939453)"/>
</clipPath>
</defs>
</svg>
