<svg width="65" height="64" viewBox="0 0 65 64" fill="none" xmlns="http://www.w3.org/2000/svg">
<circle cx="32.4229" cy="32" r="31.3179" fill="#80977B"/>
<circle cx="32.4229" cy="32" r="31.3179" fill="white" fill-opacity="0.75"/>
<circle cx="32.4229" cy="32" r="31.3179" stroke="#373F51" stroke-width="1.36424"/>
<g clip-path="url(#clip0_628_11123)">
<path d="M20.3432 40.2305H42.3694C42.3694 40.2305 43.564 43.6883 44.8663 45.8485C46.5432 48.63 53.436 55.2761 53.436 55.2761C53.436 55.2761 49.5631 58.4749 44.8663 60.5629C41.487 62.0652 33.6064 62.7861 30.936 62.7761C23.4363 62.7482 16.2515 60.1808 11.436 55.2761C11.436 55.2761 15.7681 48.9231 17.8462 45.8485C19.2714 43.7401 20.3432 40.2305 20.3432 40.2305Z" fill="#999999"/>
<path d="M46.4783 46.5438C38.7068 53.9362 27.1613 53.5189 19.0132 46.5438C13.0494 41.4386 12.4665 35.6007 11.8052 27.7781C11.1508 20.0389 14.3761 8.43716 15.6372 8.43716C17.0429 8.43716 19.4564 10.061 21.7473 11.995C23.9887 13.8872 26.3455 18.4573 26.3455 18.4573C26.3455 18.4573 30.1052 17.4322 32.2279 17.4235C34.3984 17.4146 37.9032 17.836 37.9032 17.836C37.9032 17.836 39.7705 13.5395 41.7558 11.3736C43.5594 9.40581 45.9998 7.27245 47.2239 7.27246C48.4481 7.27247 52.6921 19.9384 52.6921 27.7781C52.6921 33.8676 52.2796 41.0254 46.4783 46.5438Z" fill="#999999"/>
<path d="M15.3885 23.7614C15.3885 23.7614 16.4484 14.1894 17.8285 14.1894C19.2086 14.1894 22.7085 19.6807 22.7085 19.6807C22.7085 19.6807 20.3277 20.3732 18.9304 21.1516C17.4684 21.966 15.3885 23.7614 15.3885 23.7614Z" fill="#F7C3B9"/>
<path d="M48.0809 22.8917C48.0809 22.8917 47.0211 13.3197 45.641 13.3197C44.2609 13.3197 40.7609 18.8111 40.7609 18.8111C40.7609 18.8111 43.1418 19.5036 44.5391 20.2819C46.001 21.0963 48.0809 22.8917 48.0809 22.8917Z" fill="#F7C3B9"/>
<path d="M35.5562 35.7698C35.5562 38.4906 37.8706 39.4554 40.7966 39.4554C43.7225 39.4554 46.6128 36.9358 46.6128 34.215C46.6128 31.4942 44.1256 29.9536 41.1997 29.9536C38.2737 29.9536 35.5562 33.0491 35.5562 35.7698Z" fill="white"/>
<path d="M42.4091 34.9637C42.4091 36.6811 41.1354 37.7583 39.8753 38.0733C37.5718 38.6492 37.1687 36.278 37.1687 34.5606C37.1687 32.8431 38.4759 31.854 39.8753 31.854C41.2746 31.854 42.4091 33.2463 42.4091 34.9637Z" fill="#010101"/>
<path d="M28.3579 35.7698C28.3579 38.4905 26.0435 39.4553 23.1175 39.4553C20.1916 39.4553 17.8196 37.2497 17.8196 34.5289C17.8196 31.8082 20.1916 29.6025 23.1175 29.6025C26.0435 29.6025 28.3579 33.049 28.3579 35.7698Z" fill="white"/>
<path d="M21.6778 34.9637C21.6778 36.6811 22.9515 37.7583 24.2116 38.0733C26.5151 38.6492 26.9182 36.278 26.9182 34.5606C26.9182 32.8431 25.611 31.854 24.2116 31.854C22.8123 31.854 21.6778 33.2463 21.6778 34.9637Z" fill="#010101"/>
<path d="M32.1882 40.8104C31.6759 40.9334 30.1719 40.0871 30.1719 39.484C30.1719 38.904 33.8694 38.9793 33.8286 39.2665C33.7051 40.1375 32.7913 40.6657 32.1882 40.8104Z" fill="#010101"/>
<rect x="18.2227" y="40.5269" width="2.82174" height="0.590736" rx="0.295368" fill="#4D4D4D"/>
<rect x="19.2363" y="43.0674" width="2.82174" height="0.590736" rx="0.295368" transform="rotate(-35.6651 19.2363 43.0674)" fill="#4D4D4D"/>
<rect x="43.3879" y="39.9351" width="2.82174" height="0.590736" rx="0.295368" fill="#4D4D4D"/>
<rect width="2.82174" height="0.590736" rx="0.295368" transform="matrix(-0.91507 -0.403296 -0.403296 0.91507 45.2292 42.5601)" fill="#4D4D4D"/>
<path d="M14.8741 41.651C13.7311 39.6532 12.8948 36.3496 12.8948 36.3496C12.8948 36.3496 14.7953 41.5792 17.3929 43.7394C19.8607 45.7916 25.0237 48.1573 25.0237 48.1573C25.0237 48.1573 20.5624 47.9537 18.0355 49.0408C15.9147 49.9532 13.2555 52.3323 13.2555 52.3323C13.2555 52.3323 14.4559 50.3475 15.3848 49.0408C16.3134 47.7347 17.8059 45.5066 17.8059 45.5066C17.8059 45.5066 15.8795 43.4081 14.8741 41.651Z" fill="black" fill-opacity="0.5"/>
</g>
<circle cx="32.4229" cy="32" r="31.3179" stroke="black" stroke-width="1.36424"/>
<defs>
<clipPath id="clip0_628_11123">
<rect width="56" height="56.7273" fill="white" transform="translate(5.43604 7.27246)"/>
</clipPath>
</defs>
</svg>
