<svg width="147" height="147" viewBox="0 0 147 147" fill="none" xmlns="http://www.w3.org/2000/svg">
<rect x="0.629147" y="1.01104" width="144.919" height="144.919" rx="3.57047" fill="#E5E5E5"/>
<g clip-path="url(#clip0_590_6765)">
<path d="M21.6766 138.279H10.5087C10.3071 135.696 10.2009 133.078 10.2009 130.428C10.2009 86.8022 38.3565 51.4392 73.0886 51.4392C107.821 51.4392 135.976 86.8025 135.976 130.428C135.976 133.077 135.87 135.696 135.669 138.279H124.5L73.0886 121.515L21.6766 138.279Z" fill="#A29CDE"/>
<path d="M77.0006 51.5962C75.7063 51.4966 74.4028 51.4397 73.0886 51.4397C38.3565 51.4397 10.2009 86.8027 10.2009 130.428C10.2009 133.078 10.3068 135.697 10.5087 138.279H18.3326C18.131 135.697 18.0249 133.078 18.0249 130.428C18.0249 88.4533 44.0912 54.1337 77.0006 51.5962Z" fill="#736ACC"/>
<path d="M124.501 138.279H21.6766C30.381 118.533 50.1243 104.752 73.0886 104.752C96.053 104.752 115.796 118.533 124.501 138.279Z" fill="#DCDCDC"/>
<path d="M67.3831 27.317L69.4643 11.8316C69.7071 10.0167 71.2557 8.66211 73.0886 8.66211C74.9215 8.66211 76.4701 10.0167 76.7132 11.8316L77.9773 21.247L73.9083 29.6934L67.3831 27.317Z" fill="#FFA841"/>
<path d="M62.8486 62.4522C62.815 61.8161 62.8382 61.1673 62.9261 60.5108L65.0099 45.0022L72.6802 33.7766L80.0196 36.4477L82.0413 51.4937V51.4963L74.3707 64.5167L62.8486 62.4522Z" fill="#FFA841"/>
<path d="M80.0196 36.448C76.4055 39.4881 71.2505 43.0039 65.0099 45.0024L67.3831 27.3172C71.5168 25.6806 75.0999 23.4341 77.9773 21.2471L80.0196 36.448Z" fill="#FFD072"/>
<path d="M73.2566 72.0979H72.9204C67.4502 72.0514 63.1381 67.7032 62.8484 62.4525C71.3872 60.3069 78.1322 55.1337 82.0408 51.4963L83.2507 60.5108C84.068 66.589 79.3887 72.0436 73.2566 72.0979Z" fill="#FFD072"/>
<path d="M55.484 92.6567C55.493 88.1309 50.8933 84.4529 45.2103 84.4415C39.5272 84.4302 34.9129 88.0898 34.9038 92.6155C34.8948 97.1412 39.4945 100.819 45.1775 100.831C50.8606 100.842 55.4749 97.1824 55.484 92.6567Z" fill="#FFA1AC"/>
<path d="M111.249 92.7785C111.258 88.2528 106.659 84.5747 100.975 84.5634C95.2924 84.552 90.6781 88.2116 90.669 92.7373C90.66 97.2631 95.2597 100.941 100.943 100.952C106.626 100.964 111.24 97.3042 111.249 92.7785Z" fill="#FFA1AC"/>
<path d="M51.2966 80.4106C50.2163 80.4106 49.3406 81.2861 49.3406 82.3666V86.5483C49.3406 87.6285 50.2163 88.5043 51.2966 88.5043C52.3768 88.5043 53.2525 87.6285 53.2525 86.5483V82.3666C53.2525 81.2864 52.3768 80.4106 51.2966 80.4106Z" fill="#423C4D"/>
<path d="M94.8204 80.4106C93.7402 80.4106 92.8644 81.2861 92.8644 82.3666V86.5483C92.8644 87.6285 93.7402 88.5043 94.8204 88.5043C95.9006 88.5043 96.7764 87.6285 96.7764 86.5483V82.3666C96.7764 81.2864 95.9006 80.4106 94.8204 80.4106Z" fill="#423C4D"/>
<path d="M83.1969 87.0857C82.1166 87.0857 81.2409 87.9612 81.2409 89.0417C81.2409 90.7408 79.8586 92.123 78.1595 92.123C76.4604 92.123 75.0782 90.7405 75.0782 89.0417C75.0782 87.9612 74.2024 87.0857 73.1222 87.0857C72.042 87.0857 71.1662 87.9612 71.1662 89.0417C71.1662 90.7408 69.784 92.123 68.0849 92.123C66.3858 92.123 65.0035 90.7405 65.0035 89.0417C65.0035 87.9612 64.1278 87.0857 63.0475 87.0857C61.9673 87.0857 61.0916 87.9612 61.0916 89.0417C61.0916 92.8979 64.2287 96.035 68.0849 96.035C70.0622 96.035 71.849 95.2088 73.1222 93.885C74.3954 95.2088 76.1824 96.035 78.1595 96.035C82.0157 96.035 85.1528 92.8979 85.1528 89.0417C85.1528 87.9615 84.2771 87.0857 83.1969 87.0857Z" fill="#423C4D"/>
</g>
<rect x="0.629147" y="1.01104" width="144.919" height="144.919" rx="3.57047" stroke="#008D79" stroke-width="1.02014"/>
<defs>
<clipPath id="clip0_590_6765">
<rect width="129.617" height="129.617" fill="white" transform="translate(8.28017 8.66211)"/>
</clipPath>
</defs>
</svg>
