<svg width="147" height="146" viewBox="0 0 147 146" fill="none" xmlns="http://www.w3.org/2000/svg">
<rect x="0.718686" y="0.530087" width="144.919" height="144.919" rx="3.57047" fill="#E5E5E5"/>
<g clip-path="url(#clip0_590_6561)">
<path d="M137.986 72.9894C137.986 76.4336 137.717 79.814 137.198 83.1127C132.339 114.096 105.527 137.798 73.1782 137.798C40.8296 137.798 14.0174 114.096 9.15802 83.1129C8.63956 79.8143 8.36969 76.4336 8.36969 72.9896C8.36969 64.3503 10.06 56.1025 13.1311 48.5634C14.3346 45.606 15.7525 42.7544 17.3634 40.0325C18.8737 37.4799 20.5534 35.041 22.3893 32.7289C23.7199 31.0517 25.1326 29.4409 26.6216 27.9067C28.9178 25.5339 31.3937 23.3385 34.0283 21.3385C36.6948 19.3123 39.5251 17.4898 42.4931 15.8921C43.7047 15.2387 44.9399 14.6225 46.1966 14.0483C48.9211 12.7972 51.7488 11.7312 54.6614 10.8661C57.3251 10.0725 60.0631 9.44568 62.8617 8.9986C64.2584 8.7738 65.6682 8.59658 67.094 8.46418C69.0965 8.27634 71.1256 8.18115 73.1782 8.18115C73.5326 8.18115 73.8845 8.18368 74.2364 8.19178C78.3074 8.25533 82.2858 8.6943 86.1399 9.47732C87.4783 9.74972 88.801 10.0619 90.1076 10.4163C93.0146 11.1993 95.8424 12.1805 98.5724 13.3471C99.4638 13.7253 100.347 14.1248 101.218 14.5453C102.659 15.2357 104.069 15.9817 105.45 16.7751C108.429 18.4892 111.259 20.4335 113.915 22.5841C115.38 23.7691 116.793 25.0152 118.147 26.3217C119.531 27.6548 120.853 29.049 122.115 30.4986C125.39 34.2653 128.236 38.4184 130.58 42.8757C135.309 51.8724 137.986 62.1203 137.986 72.9894Z" fill="#427A2D"/>
<path d="M137.198 83.1128C136.085 90.2258 133.81 96.9527 130.58 103.1C128.236 107.558 125.39 111.708 122.115 115.477C120.853 116.929 119.531 118.324 118.147 119.657C116.793 120.963 115.38 122.212 113.915 123.397C111.259 125.545 108.429 127.489 105.45 129.203C104.07 129.997 102.659 130.743 101.218 131.433C100.348 131.854 99.4669 132.253 98.5727 132.631C95.8429 133.795 93.0176 134.779 90.1078 135.562C88.801 135.917 87.4785 136.229 86.1401 136.501C82.286 137.284 78.3076 137.723 74.2366 137.787C73.8847 137.794 73.5331 137.797 73.1784 137.797C71.1258 137.797 69.0967 137.702 67.0943 137.517C65.6685 137.382 64.2586 137.205 62.862 136.98C60.0633 136.533 57.3282 135.906 54.6617 135.112C51.7493 134.247 48.9241 133.181 46.1968 131.93C44.9404 131.353 43.705 130.74 42.4934 130.086C39.5253 128.489 36.695 126.666 34.0285 124.64C31.3939 122.64 28.918 120.442 26.6219 118.072C25.1325 116.535 23.7199 114.924 22.3896 113.247C20.5537 110.937 18.874 108.496 17.3636 105.946C15.7528 103.221 14.3348 100.37 13.1313 97.4097C11.285 92.8784 9.9385 88.0879 9.15826 83.1121L137.198 83.1128Z" fill="#69AF54"/>
<path d="M130.58 42.8762V103.1C128.236 107.558 125.39 111.708 122.115 115.477V30.499C125.39 34.2658 128.236 38.4188 130.58 42.8762Z" fill="#4C8E37"/>
<path d="M98.5725 13.3473V132.632C95.8427 133.796 93.0174 134.78 90.1076 135.562V10.4163C93.0149 11.1993 95.8427 12.1808 98.5725 13.3473Z" fill="#4C8E37"/>
<path d="M42.4934 15.8918V130.087C39.5253 128.489 36.695 126.666 34.0285 124.64V21.3383C36.6953 19.312 39.5253 17.4895 42.4934 15.8918Z" fill="#4C8E37"/>
<path d="M54.6614 10.866V135.113C51.7491 134.248 48.9238 133.182 46.1966 131.931V14.0482C48.9213 12.7968 51.7491 11.731 54.6614 10.866Z" fill="#4C8E37"/>
<path d="M118.147 26.3221V119.657C116.793 120.963 115.38 122.212 113.915 123.397V22.5845C115.38 23.7695 116.793 25.0153 118.147 26.3221Z" fill="#4C8E37"/>
<path d="M17.3636 40.0325V105.946C15.7528 103.222 14.3349 100.37 13.1313 97.4102V48.5634C14.3349 45.606 15.7528 42.7544 17.3636 40.0325Z" fill="#4C8E37"/>
<path d="M26.6219 27.9067V118.072C25.1326 116.535 23.7199 114.925 22.3896 113.247V32.7289C23.7202 31.052 25.1328 29.4409 26.6219 27.9067Z" fill="#4C8E37"/>
<path d="M105.45 16.7755V129.203C104.069 129.997 102.659 130.743 101.218 131.433V14.5454C102.659 15.2358 104.069 15.9818 105.45 16.7755Z" fill="#4C8E37"/>
<path d="M67.094 8.46411V137.517C65.6682 137.382 64.2584 137.205 62.8617 136.98V8.99853C64.2584 8.77372 65.6682 8.59626 67.094 8.46411Z" fill="#4C8E37"/>
<path d="M86.1399 9.47719V136.502C82.2858 137.285 78.3074 137.724 74.2364 137.787V8.19165C78.3074 8.25519 82.2858 8.69417 86.1399 9.47719Z" fill="#4C8E37"/>
<path d="M124.247 112.896C112.383 128.056 93.9194 137.798 73.1782 137.798C52.4369 137.798 33.9731 128.056 22.1091 112.896C23.9316 105.807 27.4074 99.2995 32.1372 93.8609C40.221 84.5629 51.9711 78.3783 65.409 77.6985C70.5884 77.4368 75.7677 77.4368 80.9471 77.6985C94.385 78.3783 106.135 84.5629 114.219 93.8609C118.949 99.2995 122.425 105.807 124.247 112.896Z" fill="#665B5B"/>
<path d="M113.121 45.5507C122.179 45.5507 129.522 38.2079 129.522 29.1501C129.522 20.0923 122.179 12.7495 113.121 12.7495C104.063 12.7495 96.7206 20.0923 96.7206 29.1501C96.7206 38.2079 104.063 45.5507 113.121 45.5507Z" fill="#665B5B"/>
<path d="M111.949 39.689C117.124 39.689 121.319 35.494 121.319 30.3191C121.319 25.1443 117.124 20.9492 111.949 20.9492C106.774 20.9492 102.579 25.1443 102.579 30.3191C102.579 35.494 106.774 39.689 111.949 39.689Z" fill="#4D4445"/>
<path d="M33.2351 45.5507C42.2929 45.5507 49.6357 38.2079 49.6357 29.1501C49.6357 20.0923 42.2929 12.7495 33.2351 12.7495C24.1773 12.7495 16.8345 20.0923 16.8345 29.1501C16.8345 38.2079 24.1773 45.5507 33.2351 45.5507Z" fill="#665B5B"/>
<path d="M34.4042 39.689C39.5791 39.689 43.7741 35.494 43.7741 30.3191C43.7741 25.1443 39.5791 20.9492 34.4042 20.9492C29.2294 20.9492 25.0343 25.1443 25.0343 30.3191C25.0343 35.494 29.2294 39.689 34.4042 39.689Z" fill="#4D4445"/>
<path d="M114.219 93.8607C106.135 84.5628 94.3852 78.3781 80.9473 77.6984C78.0932 77.5528 75.2389 77.4921 72.3873 77.508C72.4402 77.5055 72.4906 77.5055 72.5433 77.5027C72.3554 77.5052 72.165 77.508 71.9772 77.508C71.6413 77.5105 71.3053 77.5133 70.9694 77.5186C70.6494 77.524 70.3291 77.5318 70.0091 77.5371C69.7076 77.5424 69.4061 77.5478 69.1044 77.5556C68.7709 77.5662 68.435 77.5769 68.1018 77.5872C67.8188 77.5979 67.533 77.6057 67.25 77.6164C66.6363 77.6402 66.0227 77.6667 65.409 77.6984C44.1042 78.7751 27.0477 93.6889 22.1091 112.896C26.7806 118.866 32.4785 123.995 38.9327 128.021C38.7502 124.511 38.8322 121.057 39.1522 117.702C40.0056 108.779 47.892 102.275 56.7464 102.884C57.2244 102.917 57.6621 103.166 57.9327 103.561L61.5494 108.848C62.2863 109.925 63.8911 109.878 64.5627 108.758L66.191 106.044C66.8128 105.009 68.3256 105.044 68.8975 106.108L72.9559 113.657C73.727 115.091 75.8566 114.835 76.2665 113.26L78.0687 106.329C78.3715 105.163 79.8253 104.768 80.6767 105.619L82.2967 107.239C83.123 108.066 84.5065 107.892 85.1029 106.887L86.9454 103.783C87.1971 103.359 87.6343 103.081 88.1244 103.03C92.1838 102.612 96.2429 102.025 100.302 101.265C105.694 100.257 110.51 97.6169 114.219 93.8607Z" fill="#4D4445"/>
<path d="M80.5073 20.5483C75.6209 20.3013 70.7339 20.3013 65.8475 20.5483C39.2003 21.8962 19.5914 46.1857 24.33 72.443C24.584 73.85 24.8799 75.2571 25.2181 76.6639C27.6512 86.7912 35.8156 94.5872 46.053 96.5034C64.1361 99.8878 82.2189 99.8878 100.302 96.5034C110.54 94.5872 118.704 86.7912 121.137 76.6639C121.475 75.2568 121.771 73.8498 122.025 72.443C126.763 46.1857 107.155 21.8962 80.5073 20.5483Z" fill="#E6E6E6"/>
<path d="M73.1774 99.0434C64.1359 99.0434 55.0946 98.1969 46.053 96.504C35.8161 94.5889 27.6502 86.7934 25.2191 76.6648C24.8807 75.2575 24.5842 73.8502 24.3303 72.4428C19.5927 46.1863 39.1993 21.8978 65.8475 20.5487C68.0907 20.4376 70.3337 20.3741 72.5797 20.3662C71.1805 20.3794 69.781 20.4429 68.3844 20.5487C50.9602 21.8978 38.1388 46.1863 41.2362 72.4431C41.4028 73.8504 41.5959 75.2577 41.8182 76.665C43.408 86.7936 48.7461 94.5891 55.4411 96.5043C61.3531 98.1971 67.2651 99.0434 73.1774 99.0434Z" fill="#CCCCCC"/>
<path d="M89.0377 56.5539L86.3803 59.2113C83.1819 62.4097 83.6483 67.6791 87.3051 70.3416C90.6453 72.7737 93.6166 75.6425 96.1588 78.8877C99.4846 83.1337 105.753 83.5539 109.567 79.7404C113.381 75.9268 112.96 69.6581 108.714 66.3321C105.469 63.7901 102.6 60.8186 100.168 57.4784C97.5056 53.822 92.2361 53.3555 89.0377 56.5539Z" fill="#665B5B"/>
<path d="M57.317 56.5539L59.9744 59.2113C63.1728 62.4097 62.7065 67.6791 59.0496 70.3416C55.7095 72.7737 52.7382 75.6425 50.196 78.8877C46.8702 83.1337 40.6015 83.5539 36.7877 79.7404C32.9741 75.9268 33.3946 69.6581 37.6403 66.3321C40.8858 63.7901 43.7546 60.8186 46.1864 57.4784C48.8492 53.822 54.1186 53.3555 57.317 56.5539Z" fill="#665B5B"/>
<path d="M83.4409 99.0946C76.5988 100.359 69.7562 100.359 62.9141 99.0946C58.6626 98.3093 55.2363 94.0914 54.5791 88.6204C54.3341 86.581 54.3341 84.5418 54.5791 82.5024C55.2363 77.0319 58.6626 72.8138 62.9141 72.0282C69.7552 70.7647 76.5966 70.7642 83.4376 72.0277C87.7798 72.8295 91.2081 77.2172 91.8116 82.8173C92.02 84.7514 92.0081 86.6861 91.7757 88.6202C91.1185 94.0914 87.6922 98.3093 83.4409 99.0946Z" fill="#CCCCCC"/>
<path d="M67.4386 99.0945C69.2317 99.6844 71.025 100.002 72.8184 100.039C69.5165 100.018 66.2143 99.7028 62.9146 99.0945C58.6618 98.309 55.2356 94.0898 54.5784 88.6193C54.3346 86.5799 54.3346 84.5404 54.5784 82.501C55.2358 77.0308 58.6618 72.8114 62.9146 72.0286C66.2166 71.4175 69.5188 71.1028 72.8204 71.0815C71.0273 71.1185 69.2317 71.436 67.4386 72.0286C65.0601 72.8116 63.145 77.0308 62.7769 82.501C62.6415 84.5404 62.6415 86.5799 62.7769 88.6193C63.145 94.0898 65.0601 98.309 67.4386 99.0945Z" fill="#B39F9F"/>
<path d="M82.1002 76.6953C82.1002 79.9292 78.1054 84.4098 73.1777 84.4098C68.2499 84.4098 64.2551 79.9292 64.2551 76.6953C64.2551 73.4615 68.2499 72.699 73.1777 72.699C78.1054 72.699 82.1002 73.4617 82.1002 76.6953Z" fill="#0F0F0E"/>
<path d="M77.675 78.7482C78.9898 78.7482 80.0557 77.6823 80.0557 76.3675C80.0557 75.0527 78.9898 73.9868 77.675 73.9868C76.3602 73.9868 75.2943 75.0527 75.2943 76.3675C75.2943 77.6823 76.3602 78.7482 77.675 78.7482Z" fill="#807272"/>
<path d="M94.2075 73.0614C90.7068 73.0614 87.8588 70.2136 87.8588 66.7129C87.8588 63.8474 89.7899 61.327 92.5549 60.5832C93.0961 60.4379 93.6516 60.3645 94.2072 60.3645C97.7079 60.3645 100.556 63.2123 100.556 66.7129C100.556 67.2684 100.482 67.8241 100.337 68.3643C99.5937 71.1303 97.0732 73.0614 94.2075 73.0614Z" fill="#4D4445"/>
<path d="M52.1473 73.0614C48.6466 73.0614 45.7989 70.2136 45.7989 66.7129C45.7989 63.8474 47.7299 61.327 50.4949 60.5832C51.0362 60.4379 51.5916 60.3645 52.1473 60.3645C55.648 60.3645 58.4958 63.2123 58.4958 66.7129C58.4958 67.2684 58.4223 67.8241 58.277 68.3643C57.5332 71.1303 55.0128 73.0614 52.1473 73.0614Z" fill="#4D4445"/>
<path d="M97.6464 65.3901C97.6464 65.6997 97.6041 66.0012 97.5274 66.2868C97.1332 67.7523 95.7973 68.8287 94.2077 68.8287C92.3085 68.8287 90.7688 67.2893 90.7688 65.3898C90.7688 63.8 91.8455 62.4641 93.3108 62.0702C93.5964 61.9934 93.8981 61.9512 94.2075 61.9512C96.1067 61.9512 97.6464 63.4906 97.6464 65.3901Z" fill="#0F0F0E"/>
<path d="M52.1486 68.8287C54.0478 68.8287 55.5875 67.2891 55.5875 65.3898C55.5875 63.4906 54.0478 61.9509 52.1486 61.9509C50.2493 61.9509 48.7097 63.4906 48.7097 65.3898C48.7097 67.2891 50.2493 68.8287 52.1486 68.8287Z" fill="#0F0F0E"/>
<path d="M97.6464 65.3901C97.6464 65.6997 97.6042 66.0012 97.5274 66.2868C97.1226 66.4746 96.6677 66.5804 96.1915 66.5804C94.4377 66.5804 93.0172 65.1599 93.0172 63.4061C93.0172 62.9299 93.123 62.475 93.3108 62.0702C93.5964 61.9934 93.8982 61.9512 94.2075 61.9512C96.1067 61.9512 97.6464 63.4906 97.6464 65.3901Z" fill="#E6E6E6"/>
<path d="M55.586 65.3901C55.586 65.6997 55.5437 66.0012 55.467 66.2868C55.0622 66.4746 54.6073 66.5804 54.1311 66.5804C52.3772 66.5804 50.9567 65.1599 50.9567 63.4061C50.9567 62.9299 51.0625 62.475 51.2504 62.0702C51.5359 61.9934 51.8377 61.9512 52.1471 61.9512C54.0465 61.9512 55.586 63.4906 55.586 65.3901Z" fill="#E6E6E6"/>
<path d="M33.5685 104.377C34.286 103.274 36.0222 103.641 36.1827 104.947C36.4789 107.361 34.103 110.747 31.2286 111.842C28.2459 112.978 31.6992 107.249 33.5685 104.377Z" fill="#665B5B"/>
<path d="M34.4285 112.827C34.9032 111.6 36.6778 111.601 37.1039 112.845C37.892 115.147 36.2654 118.95 33.6789 120.614C30.9944 122.341 33.1918 116.023 34.4285 112.827Z" fill="#665B5B"/>
</g>
<rect x="0.718686" y="0.530087" width="144.919" height="144.919" rx="3.57047" stroke="#008D79" stroke-width="1.02014"/>
<defs>
<clipPath id="clip0_590_6561">
<rect width="129.617" height="129.617" fill="white" transform="translate(8.36969 8.18115)"/>
</clipPath>
</defs>
</svg>
