<svg width="146" height="147" viewBox="0 0 146 147" fill="none" xmlns="http://www.w3.org/2000/svg">
<rect x="0.510068" y="1.44952" width="144.787" height="144.919" rx="3.57047" fill="#E5E5E5"/>
<g clip-path="url(#clip0_590_6472)">
<path d="M98.4094 124.301H47.3982C25.7281 124.301 8.16109 106.734 8.16109 85.0642V77.5237C8.16109 47.6965 32.341 23.5166 62.1682 23.5166H83.6395C113.467 23.5166 137.647 47.6965 137.647 77.5237V85.0642C137.647 106.734 120.079 124.301 98.4094 124.301Z" fill="#E49280"/>
<path d="M49.5737 124.302H47.3987C25.7276 124.302 8.1611 106.733 8.1611 85.0644V77.5229C8.1611 47.6958 32.341 23.5159 62.1682 23.5159H63.7437C36.5594 27.5067 15.69 50.9228 15.69 79.2174V83.9997C15.69 104.196 30.3279 120.974 49.5737 124.302Z" fill="#DD7F66"/>
<path d="M48.5826 112.577C33.2269 112.577 20.6883 100.517 19.9223 85.3517C19.8977 84.8641 23.6045 78.1809 23.6045 78.1809C23.6045 72.1659 21.1005 67.4028 23.299 62.1776C29.4276 47.6115 43.1942 37.0195 59.5559 35.4439C62.1416 35.1951 64.7134 36.0488 66.6604 37.7681C70.2269 40.9172 75.5805 40.9172 79.1469 37.7681C81.094 36.0488 83.6658 35.1948 86.2514 35.4439C102.484 37.0071 116.162 47.4448 122.362 61.8329C124.653 67.1499 114.039 69.9718 114.039 76.119C114.039 76.119 125.915 84.6512 125.9 85.0338C125.294 100.348 112.688 112.577 97.2253 112.577H48.5826V112.577Z" fill="#FFCEBF"/>
<path d="M50.4184 112.578H48.5823C33.2261 112.578 20.6881 100.518 19.9225 85.3515C19.898 84.8644 23.5054 78.9723 23.5054 78.9723C23.5054 72.9573 21.1011 67.4026 23.2993 62.1774C29.4278 47.6111 43.1943 37.0191 59.5554 35.4425C60.5367 35.3489 61.5154 35.4121 62.4588 35.6246C42.4568 40.0554 27.4572 57.9279 27.4572 79.2424V84.0501C27.4575 98.0358 37.2903 109.725 50.4184 112.578Z" fill="#FFB09E"/>
<path d="M59.0982 68.8129C59.0982 74.0391 55.3856 78.6897 50.0656 79.6876L19.9215 85.3516C19.898 84.8645 24.1983 78.2797 24.1983 78.2797C24.1983 72.264 21.1018 67.4007 23.298 62.177L45.9749 57.9174C51.9881 56.7892 57.7745 60.7469 58.9052 66.7573C59.0355 67.4477 59.0982 68.1354 59.0982 68.8129Z" fill="#918291"/>
<path d="M125.923 79.1537V83.8797C125.923 84.2654 125.915 84.6508 125.896 85.0339L95.7423 79.37C90.4223 78.3695 86.7097 73.7189 86.7097 68.4952C86.7097 67.8179 86.7722 67.1301 86.9024 66.4396C88.0331 60.4292 93.8195 56.469 99.8327 57.5997L122.361 61.8333C124.654 67.1483 125.923 73.005 125.923 79.1537Z" fill="#918291"/>
<path d="M88.2248 100.273C87.8488 99.2958 86.7512 98.8085 85.7735 99.1845C82.4096 100.48 78.3179 100.612 74.8006 99.5892V88.1145C74.8006 87.0668 73.9516 86.2178 72.9038 86.2178C71.8561 86.2178 71.0071 87.0668 71.0071 88.1145V99.5892C67.4897 100.612 63.398 100.48 60.0342 99.1845C59.0562 98.8069 57.9589 99.2955 57.5828 100.273C57.2065 101.251 57.6936 102.348 58.6716 102.725C61.0061 103.624 63.5672 104.073 66.1283 104.073C68.4431 104.073 70.7562 103.702 72.9038 102.968C75.0515 103.702 77.3645 104.073 79.6793 104.073C82.2404 104.073 84.8016 103.624 87.1361 102.725C88.1141 102.348 88.6011 101.251 88.2248 100.273Z" fill="#FD8087"/>
<path d="M98.3707 72.8356C97.3229 72.8356 96.4739 71.9866 96.4739 70.9388V66.2493C96.4739 65.2015 97.3229 64.3525 98.3707 64.3525C99.4185 64.3525 100.267 65.2015 100.267 66.2493V70.9388C100.267 71.9864 99.4185 72.8356 98.3707 72.8356Z" fill="#7A6D79"/>
<path d="M47.4369 73.1542C46.3891 73.1542 45.5401 72.3052 45.5401 71.2574V66.5679C45.5401 65.5201 46.3891 64.6711 47.4369 64.6711C48.4847 64.6711 49.3336 65.5201 49.3336 66.5679V71.2574C49.3336 72.305 48.4844 73.1542 47.4369 73.1542Z" fill="#7A6D79"/>
<path d="M31.5191 60.6343C28.9116 66.3018 27.4575 72.6041 27.4575 79.2428V83.9366L19.921 85.3528C19.8982 84.8647 19.8856 84.3716 19.8856 83.8784V79.1542C19.8856 73.1377 21.1021 67.4019 23.2972 62.177L31.5191 60.6343Z" fill="#7A6D79"/>
<path d="M67.1845 81.3879H78.6229C80.7271 81.3879 82.4326 83.0935 82.4326 85.1976V85.5919C82.4326 90.7003 78.2914 94.8415 73.183 94.8415H72.6246C67.5163 94.8415 63.375 90.7003 63.375 85.5919V85.1976C63.375 83.0935 65.0806 81.3879 67.1845 81.3879Z" fill="#FE99A0"/>
</g>
<rect x="0.510068" y="1.44952" width="144.787" height="144.919" rx="3.57047" stroke="#008D79" stroke-width="1.02014"/>
<defs>
<clipPath id="clip0_590_6472">
<rect width="129.485" height="129.617" fill="white" transform="translate(8.16109 9.10059)"/>
</clipPath>
</defs>
</svg>
